<svg width="61" height="31" viewBox="0 0 61 31" fill="none" xmlns="http://www.w3.org/2000/svg">
<path d="M10.1797 3.625V15H8.21875L3.11719 6.85156V15H1.15625V3.625H3.11719L8.23438 11.7891V3.625H10.1797ZM12.7688 10.8672V10.6875C12.7688 10.0781 12.8573 9.51302 13.0344 8.99219C13.2115 8.46615 13.4667 8.01042 13.8 7.625C14.1385 7.23438 14.55 6.93229 15.0344 6.71875C15.524 6.5 16.076 6.39062 16.6906 6.39062C17.3104 6.39062 17.8625 6.5 18.3469 6.71875C18.8365 6.93229 19.2505 7.23438 19.5891 7.625C19.9276 8.01042 20.1854 8.46615 20.3625 8.99219C20.5396 9.51302 20.6281 10.0781 20.6281 10.6875V10.8672C20.6281 11.4766 20.5396 12.0417 20.3625 12.5625C20.1854 13.0833 19.9276 13.5391 19.5891 13.9297C19.2505 14.3151 18.8391 14.6172 18.3547 14.8359C17.8703 15.0495 17.3208 15.1562 16.7063 15.1562C16.0865 15.1562 15.5318 15.0495 15.0422 14.8359C14.5578 14.6172 14.1464 14.3151 13.8078 13.9297C13.4693 13.5391 13.2115 13.0833 13.0344 12.5625C12.8573 12.0417 12.7688 11.4766 12.7688 10.8672ZM14.6516 10.6875V10.8672C14.6516 11.2474 14.6906 11.6068 14.7688 11.9453C14.8469 12.2839 14.9693 12.5807 15.1359 12.8359C15.3026 13.0911 15.5161 13.2917 15.7766 13.4375C16.037 13.5833 16.3469 13.6562 16.7063 13.6562C17.0552 13.6562 17.3573 13.5833 17.6125 13.4375C17.8729 13.2917 18.0865 13.0911 18.2531 12.8359C18.4198 12.5807 18.5422 12.2839 18.6203 11.9453C18.7036 11.6068 18.7453 11.2474 18.7453 10.8672V10.6875C18.7453 10.3125 18.7036 9.95833 18.6203 9.625C18.5422 9.28646 18.4172 8.98698 18.2453 8.72656C18.0786 8.46615 17.8651 8.26302 17.6047 8.11719C17.3495 7.96615 17.0448 7.89062 16.6906 7.89062C16.3365 7.89062 16.0292 7.96615 15.7688 8.11719C15.5135 8.26302 15.3026 8.46615 15.1359 8.72656C14.9693 8.98698 14.8469 9.28646 14.7688 9.625C14.6906 9.95833 14.6516 10.3125 14.6516 10.6875ZM24.8969 8.15625V15H23.0141V6.54688H24.8109L24.8969 8.15625ZM27.4828 6.49219L27.4672 8.24219C27.3526 8.22135 27.2276 8.20573 27.0922 8.19531C26.962 8.1849 26.8318 8.17969 26.7016 8.17969C26.3786 8.17969 26.0948 8.22656 25.85 8.32031C25.6052 8.40885 25.3995 8.53906 25.2328 8.71094C25.0714 8.8776 24.9464 9.08073 24.8578 9.32031C24.7693 9.5599 24.7172 9.82812 24.7016 10.125L24.2719 10.1562C24.2719 9.625 24.324 9.13281 24.4281 8.67969C24.5323 8.22656 24.6885 7.82812 24.8969 7.48438C25.1104 7.14062 25.376 6.8724 25.6938 6.67969C26.0167 6.48698 26.3891 6.39062 26.8109 6.39062C26.9255 6.39062 27.0479 6.40104 27.1781 6.42188C27.3135 6.44271 27.4151 6.46615 27.4828 6.49219ZM34.4625 13.25V3H36.3531V15H34.6422L34.4625 13.25ZM28.9625 10.8672V10.7031C28.9625 10.0625 29.038 9.47917 29.1891 8.95312C29.3401 8.42188 29.5589 7.96615 29.8453 7.58594C30.1318 7.20052 30.4807 6.90625 30.8922 6.70312C31.3036 6.49479 31.7672 6.39062 32.2828 6.39062C32.7932 6.39062 33.2411 6.48958 33.6266 6.6875C34.012 6.88542 34.3401 7.16927 34.6109 7.53906C34.8818 7.90365 35.0979 8.34115 35.2594 8.85156C35.4208 9.35677 35.5354 9.91927 35.6031 10.5391V11.0625C35.5354 11.6667 35.4208 12.2188 35.2594 12.7188C35.0979 13.2188 34.8818 13.651 34.6109 14.0156C34.3401 14.3802 34.0094 14.6615 33.6187 14.8594C33.2333 15.0573 32.7828 15.1562 32.2672 15.1562C31.7568 15.1562 31.2958 15.0495 30.8844 14.8359C30.4781 14.6224 30.1318 14.3229 29.8453 13.9375C29.5589 13.5521 29.3401 13.099 29.1891 12.5781C29.038 12.0521 28.9625 11.4818 28.9625 10.8672ZM30.8453 10.7031V10.8672C30.8453 11.2526 30.8792 11.612 30.9469 11.9453C31.0198 12.2786 31.1318 12.5729 31.2828 12.8281C31.4339 13.0781 31.6292 13.276 31.8687 13.4219C32.1135 13.5625 32.4052 13.6328 32.7437 13.6328C33.1708 13.6328 33.5224 13.5391 33.7984 13.3516C34.0745 13.1641 34.2906 12.9115 34.4469 12.5938C34.6083 12.2708 34.7177 11.9115 34.775 11.5156V10.1016C34.7437 9.79427 34.6786 9.50781 34.5797 9.24219C34.4859 8.97656 34.3583 8.74479 34.1969 8.54688C34.0354 8.34375 33.8349 8.1875 33.5953 8.07812C33.3609 7.96354 33.0823 7.90625 32.7594 7.90625C32.4156 7.90625 32.124 7.97917 31.8844 8.125C31.6448 8.27083 31.4469 8.47135 31.2906 8.72656C31.1396 8.98177 31.0276 9.27865 30.9547 9.61719C30.8818 9.95573 30.8453 10.3177 30.8453 10.7031ZM41.1375 3V15H39.2469V3H41.1375ZM46.4531 14.0781L48.75 6.54688H50.7656L47.375 16.2891C47.2969 16.4974 47.1953 16.724 47.0703 16.9688C46.9453 17.2135 46.7812 17.4453 46.5781 17.6641C46.3802 17.888 46.1328 18.0677 45.8359 18.2031C45.5391 18.3438 45.1797 18.4141 44.7578 18.4141C44.5911 18.4141 44.4297 18.3984 44.2734 18.3672C44.1224 18.3411 43.9792 18.3125 43.8438 18.2812L43.8359 16.8438C43.888 16.849 43.9505 16.8542 44.0234 16.8594C44.1016 16.8646 44.1641 16.8672 44.2109 16.8672C44.5234 16.8672 44.7839 16.8281 44.9922 16.75C45.2005 16.6771 45.3698 16.5573 45.5 16.3906C45.6354 16.224 45.75 16 45.8438 15.7188L46.4531 14.0781ZM45.1562 6.54688L47.1641 12.875L47.5 14.8594L46.1953 15.1953L43.125 6.54688H45.1562ZM54.5109 8.35156V15H52.6281V6.54688H54.4016L54.5109 8.35156ZM54.175 10.4609L53.5656 10.4531C53.5708 9.85417 53.6542 9.30469 53.8156 8.80469C53.9823 8.30469 54.2115 7.875 54.5031 7.51562C54.8 7.15625 55.1542 6.88021 55.5656 6.6875C55.9771 6.48958 56.4354 6.39062 56.9406 6.39062C57.3469 6.39062 57.7141 6.44792 58.0422 6.5625C58.3755 6.67188 58.6594 6.85156 58.8937 7.10156C59.1333 7.35156 59.3156 7.67708 59.4406 8.07812C59.5656 8.47396 59.6281 8.96094 59.6281 9.53906V15H57.7375V9.53125C57.7375 9.125 57.6776 8.80469 57.5578 8.57031C57.4432 8.33073 57.274 8.16146 57.05 8.0625C56.8312 7.95833 56.5578 7.90625 56.2297 7.90625C55.9068 7.90625 55.6177 7.97396 55.3625 8.10938C55.1073 8.24479 54.8911 8.42969 54.7141 8.66406C54.5422 8.89844 54.4094 9.16927 54.3156 9.47656C54.2219 9.78385 54.175 10.112 54.175 10.4609Z" fill="white"/>
<path d="M4.46289 26.1689C4.46289 26.0225 4.4401 25.8923 4.39453 25.7783C4.35221 25.6644 4.27572 25.5602 4.16504 25.4658C4.05436 25.3714 3.89811 25.2803 3.69629 25.1924C3.49772 25.1012 3.24382 25.0085 2.93457 24.9141C2.59603 24.8099 2.28353 24.6943 1.99707 24.5674C1.71387 24.4372 1.46647 24.2874 1.25488 24.1182C1.04329 23.9456 0.878906 23.7487 0.761719 23.5273C0.644531 23.3027 0.585938 23.0439 0.585938 22.751C0.585938 22.4613 0.646159 22.1976 0.766602 21.96C0.890299 21.7223 1.06445 21.5173 1.28906 21.3447C1.51693 21.1689 1.78548 21.0339 2.09473 20.9395C2.40397 20.8418 2.74577 20.793 3.12012 20.793C3.64746 20.793 4.10156 20.8906 4.48242 21.0859C4.86654 21.2812 5.16113 21.5433 5.36621 21.8721C5.57454 22.2008 5.67871 22.5638 5.67871 22.9609H4.46289C4.46289 22.7266 4.41243 22.5199 4.31152 22.3408C4.21387 22.1585 4.06413 22.0153 3.8623 21.9111C3.66374 21.807 3.41146 21.7549 3.10547 21.7549C2.81576 21.7549 2.57487 21.7988 2.38281 21.8867C2.19076 21.9746 2.04753 22.0934 1.95312 22.2432C1.85872 22.3929 1.81152 22.5622 1.81152 22.751C1.81152 22.8844 1.84245 23.0065 1.9043 23.1172C1.96615 23.2246 2.06055 23.3255 2.1875 23.4199C2.31445 23.5111 2.47396 23.5973 2.66602 23.6787C2.85807 23.7601 3.08431 23.8382 3.34473 23.9131C3.73861 24.0303 4.08203 24.1605 4.375 24.3037C4.66797 24.4437 4.91211 24.6032 5.10742 24.7822C5.30273 24.9613 5.44922 25.1647 5.54688 25.3926C5.64453 25.6172 5.69336 25.8727 5.69336 26.1592C5.69336 26.4587 5.63314 26.7288 5.5127 26.9697C5.39225 27.2074 5.21973 27.4108 4.99512 27.5801C4.77376 27.7461 4.50684 27.8747 4.19434 27.9658C3.88509 28.0537 3.54004 28.0977 3.15918 28.0977C2.81738 28.0977 2.48047 28.0521 2.14844 27.9609C1.81966 27.8698 1.52018 27.7314 1.25 27.5459C0.979818 27.3571 0.764974 27.1227 0.605469 26.8428C0.445964 26.5596 0.366211 26.2292 0.366211 25.8516H1.5918C1.5918 26.0827 1.63086 26.2796 1.70898 26.4424C1.79036 26.6051 1.90267 26.7386 2.0459 26.8428C2.18913 26.9437 2.35514 27.0186 2.54395 27.0674C2.736 27.1162 2.94108 27.1406 3.15918 27.1406C3.44564 27.1406 3.6849 27.0999 3.87695 27.0186C4.07227 26.9372 4.21875 26.8232 4.31641 26.6768C4.41406 26.5303 4.46289 26.361 4.46289 26.1689ZM15.382 22.7168V23.5762H12.4035V22.7168H15.382ZM13.2629 21.4229H14.4396V26.54C14.4396 26.7028 14.4624 26.8281 14.508 26.916C14.5568 27.0007 14.6236 27.0576 14.7082 27.0869C14.7928 27.1162 14.8921 27.1309 15.0061 27.1309C15.0874 27.1309 15.1656 27.126 15.2404 27.1162C15.3153 27.1064 15.3755 27.0967 15.4211 27.0869L15.426 27.9854C15.3283 28.0146 15.2144 28.0407 15.0842 28.0635C14.9572 28.0863 14.8107 28.0977 14.6447 28.0977C14.3745 28.0977 14.1353 28.0505 13.927 27.9561C13.7186 27.8584 13.5559 27.7005 13.4387 27.4824C13.3215 27.2643 13.2629 26.9746 13.2629 26.6133V21.4229ZM25.7689 26.7549V22.7168H26.9506V28H25.8373L25.7689 26.7549ZM25.935 25.6562L26.3305 25.6465C26.3305 26.0013 26.2914 26.3285 26.2133 26.6279C26.1352 26.9242 26.0147 27.1829 25.852 27.4043C25.6892 27.6224 25.4809 27.7933 25.227 27.917C24.973 28.0374 24.6687 28.0977 24.3139 28.0977C24.0567 28.0977 23.8207 28.0602 23.6059 27.9854C23.391 27.9105 23.2055 27.7949 23.0492 27.6387C22.8962 27.4824 22.7774 27.279 22.6928 27.0283C22.6081 26.7777 22.5658 26.4782 22.5658 26.1299V22.7168H23.7426V26.1396C23.7426 26.3317 23.7654 26.4928 23.8109 26.623C23.8565 26.75 23.9184 26.8525 23.9965 26.9307C24.0746 27.0088 24.1658 27.0641 24.2699 27.0967C24.3741 27.1292 24.4848 27.1455 24.602 27.1455C24.9372 27.1455 25.2009 27.0804 25.393 26.9502C25.5883 26.8167 25.7266 26.6377 25.808 26.4131C25.8926 26.1885 25.935 25.9362 25.935 25.6562ZM37.6793 26.9062V20.5H38.8609V28H37.7916L37.6793 26.9062ZM34.2418 25.417V25.3145C34.2418 24.9141 34.289 24.5495 34.3834 24.2207C34.4778 23.8887 34.6145 23.6038 34.7936 23.3662C34.9726 23.1253 35.1907 22.9414 35.4479 22.8145C35.705 22.6842 35.9947 22.6191 36.317 22.6191C36.636 22.6191 36.916 22.681 37.1568 22.8047C37.3977 22.9284 37.6028 23.1058 37.7721 23.3369C37.9413 23.5648 38.0764 23.8382 38.1773 24.1572C38.2783 24.473 38.3499 24.8245 38.3922 25.2119V25.5391C38.3499 25.9167 38.2783 26.2617 38.1773 26.5742C38.0764 26.8867 37.9413 27.1569 37.7721 27.3848C37.6028 27.6126 37.3961 27.7884 37.152 27.9121C36.9111 28.0358 36.6295 28.0977 36.3072 28.0977C35.9882 28.0977 35.7001 28.0309 35.443 27.8975C35.1891 27.764 34.9726 27.5768 34.7936 27.3359C34.6145 27.0951 34.4778 26.8118 34.3834 26.4863C34.289 26.1576 34.2418 25.8011 34.2418 25.417ZM35.4186 25.3145V25.417C35.4186 25.6579 35.4397 25.8825 35.482 26.0908C35.5276 26.2992 35.5976 26.4831 35.692 26.6426C35.7864 26.7988 35.9085 26.9225 36.0582 27.0137C36.2112 27.1016 36.3935 27.1455 36.6051 27.1455C36.872 27.1455 37.0917 27.0869 37.2643 26.9697C37.4368 26.8525 37.5719 26.6947 37.6695 26.4961C37.7704 26.2943 37.8388 26.0697 37.8746 25.8223V24.9385C37.8551 24.7464 37.8144 24.5674 37.7525 24.4014C37.6939 24.2354 37.6142 24.0905 37.5133 23.9668C37.4124 23.8398 37.287 23.7422 37.1373 23.6738C36.9908 23.6022 36.8167 23.5664 36.6148 23.5664C36.4 23.5664 36.2177 23.612 36.068 23.7031C35.9182 23.7943 35.7945 23.9196 35.6969 24.0791C35.6025 24.2386 35.5325 24.4242 35.4869 24.6357C35.4413 24.8473 35.4186 25.0736 35.4186 25.3145ZM47.6512 22.7168V28H46.4695V22.7168H47.6512ZM46.3914 21.3301C46.3914 21.151 46.45 21.0029 46.5672 20.8857C46.6876 20.7653 46.8536 20.7051 47.0652 20.7051C47.2736 20.7051 47.438 20.7653 47.5584 20.8857C47.6788 21.0029 47.7391 21.151 47.7391 21.3301C47.7391 21.5059 47.6788 21.6523 47.5584 21.7695C47.438 21.8867 47.2736 21.9453 47.0652 21.9453C46.8536 21.9453 46.6876 21.8867 46.5672 21.7695C46.45 21.6523 46.3914 21.5059 46.3914 21.3301ZM55.0156 25.417V25.3047C55.0156 24.9238 55.071 24.5706 55.1816 24.2451C55.2923 23.9163 55.4518 23.6315 55.6602 23.3906C55.8717 23.1465 56.1289 22.9577 56.4316 22.8242C56.7376 22.6875 57.0827 22.6191 57.4668 22.6191C57.8542 22.6191 58.1992 22.6875 58.502 22.8242C58.8079 22.9577 59.0667 23.1465 59.2783 23.3906C59.4899 23.6315 59.651 23.9163 59.7617 24.2451C59.8724 24.5706 59.9277 24.9238 59.9277 25.3047V25.417C59.9277 25.7979 59.8724 26.151 59.7617 26.4766C59.651 26.8021 59.4899 27.0869 59.2783 27.3311C59.0667 27.5719 58.8096 27.7607 58.5068 27.8975C58.2041 28.0309 57.8607 28.0977 57.4766 28.0977C57.0892 28.0977 56.7425 28.0309 56.4365 27.8975C56.1338 27.7607 55.8766 27.5719 55.665 27.3311C55.4535 27.0869 55.2923 26.8021 55.1816 26.4766C55.071 26.151 55.0156 25.7979 55.0156 25.417ZM56.1924 25.3047V25.417C56.1924 25.6546 56.2168 25.8792 56.2656 26.0908C56.3145 26.3024 56.391 26.488 56.4951 26.6475C56.5993 26.807 56.7327 26.9323 56.8955 27.0234C57.0583 27.1146 57.252 27.1602 57.4766 27.1602C57.6947 27.1602 57.8835 27.1146 58.043 27.0234C58.2057 26.9323 58.3392 26.807 58.4434 26.6475C58.5475 26.488 58.624 26.3024 58.6729 26.0908C58.7249 25.8792 58.751 25.6546 58.751 25.417V25.3047C58.751 25.0703 58.7249 24.849 58.6729 24.6406C58.624 24.429 58.5459 24.2419 58.4385 24.0791C58.3343 23.9163 58.2008 23.7894 58.0381 23.6982C57.8786 23.6038 57.6882 23.5566 57.4668 23.5566C57.2454 23.5566 57.0534 23.6038 56.8906 23.6982C56.7311 23.7894 56.5993 23.9163 56.4951 24.0791C56.391 24.2419 56.3145 24.429 56.2656 24.6406C56.2168 24.849 56.1924 25.0703 56.1924 25.3047Z" fill="white"/>
</svg>
